<svg xmlns="http://www.w3.org/2000/svg" viewBox="0 0 400 300" fill="none">
  <rect width="400" height="300" rx="16" fill="#f0fdf4"/>
  <rect x="1" y="1" width="398" height="298" rx="15" stroke="#bbf7d0" stroke-width="2"/>
  <text x="200" y="35" text-anchor="middle" font-family="Arial" font-size="16" font-weight="bold" fill="#065f46">Marital Relations</text>
  <!-- Two people -->
  <circle cx="150" cy="110" r="18" fill="#d4a574"/>
  <path d="M132 130 L132 180 Q132 190 142 190 L158 190 Q168 190 168 180 L168 130" fill="#1e293b"/>
  <circle cx="250" cy="110" r="18" fill="#d4a574"/>
  <path d="M232 130 L232 180 Q232 190 242 190 L258 190 Q268 190 268 180 L268 130" fill="#6b7280"/>
  <!-- Heart between them -->
  <path d="M190 120 C190 110, 200 105, 200 115 C200 105, 210 110, 210 120 C210 135, 200 145, 200 145 C200 145, 190 135, 190 120Z" fill="#fca5a5"/>
  <!-- Big X over heart -->
  <line x1="180" y1="105" x2="220" y2="155" stroke="#059669" stroke-width="4" stroke-linecap="round"/>
  <line x1="220" y1="105" x2="180" y2="155" stroke="#059669" stroke-width="4" stroke-linecap="round"/>
  <!-- Note -->
  <rect x="80" y="220" width="240" height="50" rx="8" fill="white" stroke="#059669" stroke-width="1.5"/>
  <text x="200" y="240" text-anchor="middle" font-family="Arial" font-size="11" font-weight="bold" fill="#065f46">Most Serious Violation</text>
  <text x="200" y="258" text-anchor="middle" font-family="Arial" font-size="9" fill="#6b7280">Strictly prohibited during Ihram</text>
</svg>